<?xml version="1.0" encoding="UTF-8" ?>
<!DOCTYPE svg PUBLIC "-//W3C//DTD SVG 1.1//EN" "http://www.w3.org/Graphics/SVG/1.1/DTD/svg11.dtd">
<svg width="180pt" height="255pt" viewBox="0 0 180 255" version="1.1" xmlns="http://www.w3.org/2000/svg">
<g id="#ffffffff">
<path fill="#ffffff" opacity="1.00" d=" M 96.82 63.80 C 104.74 50.22 121.54 43.22 136.85 45.72 C 139.46 46.35 142.62 46.28 144.58 48.34 C 136.62 49.61 129.52 53.71 122.56 57.56 C 112.24 63.65 102.01 70.20 93.53 78.76 C 93.16 78.82 92.43 78.94 92.06 79.00 C 91.59 73.61 94.32 68.43 96.82 63.80 Z" />
<path fill="#ffffff" opacity="1.00" d=" M 131.98 54.00 C 136.89 51.75 141.86 48.96 147.30 48.42 C 147.39 58.82 142.80 69.11 135.06 76.04 C 124.52 85.85 108.47 88.66 94.97 84.13 C 93.99 82.85 92.13 80.45 94.10 79.24 C 105.46 69.11 118.54 61.06 131.98 54.00 Z" />
<path fill="#ffffff" opacity="1.00" d=" M 122.88 150.34 C 123.35 150.34 124.28 150.32 124.74 150.31 C 124.54 153.68 124.51 157.05 124.55 160.43 C 124.05 160.43 123.04 160.42 122.53 160.42 C 122.47 157.06 122.32 153.67 122.88 150.34 Z" />
<path fill="#ffffff" opacity="1.00" d=" M 62.26 152.11 C 63.75 150.73 66.06 151.32 67.08 152.95 C 67.50 154.95 67.51 157.02 67.95 159.02 C 69.56 165.99 75.45 171.74 82.45 173.19 C 84.28 173.52 86.15 173.60 87.98 173.95 C 90.35 175.01 90.23 178.85 87.71 179.65 C 73.47 181.08 59.96 167.57 61.39 153.33 C 61.61 153.03 62.04 152.42 62.26 152.11 Z" />
<path fill="#ffffff" opacity="1.00" d=" M 26.89 163.04 C 28.66 160.47 29.95 156.98 33.08 155.82 C 33.13 158.37 31.36 160.32 30.22 162.44 C 32.15 162.26 34.09 161.83 36.03 162.07 C 36.79 164.24 34.27 166.05 33.57 168.04 C 35.72 168.06 39.59 165.57 40.30 168.74 C 37.08 168.95 32.94 172.26 30.33 169.19 C 31.35 167.57 32.33 165.92 33.28 164.26 C 31.19 164.20 27.27 166.27 26.89 163.04 Z" />
</g>
<g id="#3ac457ff">
<path fill="#3ac457" opacity="1.00" d=" M 95.67 60.16 C 101.86 50.39 112.62 43.84 124.10 42.64 C 132.91 41.49 141.78 43.63 149.73 47.39 C 150.94 58.98 146.16 70.79 137.48 78.49 C 128.78 86.52 116.34 89.95 104.69 88.19 C 104.08 88.09 102.85 87.90 102.24 87.80 C 100.11 87.41 98.02 86.86 95.93 86.29 C 102.42 97.41 109.97 107.87 116.51 118.95 C 116.56 120.59 116.48 122.23 116.42 123.87 C 114.16 126.36 111.98 129.15 111.42 132.58 C 109.72 140.30 115.12 148.72 122.88 150.34 C 122.32 153.67 122.47 157.06 122.53 160.42 C 123.04 160.42 124.05 160.43 124.55 160.43 C 124.51 157.05 124.54 153.68 124.74 150.31 L 125.30 150.29 C 126.66 151.46 128.02 152.63 129.42 153.75 C 129.79 153.29 130.54 152.37 130.91 151.90 C 130.24 153.45 129.40 154.92 128.11 156.03 C 127.65 157.86 127.33 159.72 127.30 161.62 L 127.30 161.62 C 125.19 170.32 119.61 177.81 112.43 183.03 C 99.29 192.11 80.53 192.01 67.54 182.67 C 59.61 176.62 53.71 167.69 52.66 157.62 C 52.61 157.18 52.52 156.29 52.47 155.85 C 52.51 154.01 52.49 152.17 52.35 150.34 C 53.02 147.84 53.54 145.30 53.52 142.70 L 53.56 143.55 C 53.65 145.69 53.48 147.90 54.20 149.96 C 56.93 151.14 60.06 150.89 62.95 150.55 C 65.95 150.48 64.91 146.91 65.42 144.94 C 66.75 145.02 68.09 144.93 69.43 145.03 C 69.72 146.81 69.19 149.02 70.71 150.36 C 73.80 151.02 77.12 151.05 80.19 150.23 C 81.54 148.45 81.02 146.05 81.17 143.98 C 80.93 134.05 81.58 124.07 80.82 114.18 C 77.09 111.43 71.86 112.83 67.63 113.59 C 72.01 107.15 76.00 100.45 80.37 93.99 C 81.12 92.82 81.85 91.64 82.50 90.41 C 84.97 85.76 87.53 81.12 89.30 76.14 C 90.69 72.40 91.52 68.46 93.31 64.88 C 94.10 63.31 94.91 61.75 95.67 60.16 M 96.82 63.80 C 94.32 68.43 91.59 73.61 92.06 79.00 C 92.43 78.94 93.16 78.82 93.53 78.76 C 102.01 70.20 112.24 63.65 122.56 57.56 C 129.52 53.71 136.62 49.61 144.58 48.34 C 142.62 46.28 139.46 46.35 136.85 45.72 C 121.54 43.22 104.74 50.22 96.82 63.80 M 131.98 54.00 C 118.54 61.06 105.46 69.11 94.10 79.24 C 92.13 80.45 93.99 82.85 94.97 84.13 C 108.47 88.66 124.52 85.85 135.06 76.04 C 142.80 69.11 147.39 58.82 147.30 48.42 C 141.86 48.96 136.89 51.75 131.98 54.00 M 96.00 112.54 C 88.94 114.50 83.25 120.71 81.98 127.94 C 80.47 135.20 83.56 143.15 89.56 147.51 C 93.66 150.76 99.05 151.85 104.19 151.45 C 103.51 153.33 104.35 155.07 105.25 156.68 C 106.72 155.76 106.99 154.56 106.05 153.05 C 106.24 151.27 108.69 151.44 108.92 153.06 C 108.17 155.68 106.60 157.97 105.42 160.40 C 107.36 160.38 109.30 160.34 111.24 160.28 C 111.15 158.76 110.35 158.03 108.83 158.07 C 110.73 155.50 112.02 151.87 108.89 149.64 C 111.16 149.37 114.74 147.78 113.71 144.94 C 112.29 142.55 110.79 140.06 108.66 138.25 C 106.31 137.81 104.34 139.99 101.98 139.94 C 97.50 140.40 93.31 136.47 93.20 132.04 C 92.70 126.54 98.98 121.59 104.15 123.86 C 105.75 124.24 107.90 125.93 109.25 124.21 C 110.96 122.01 112.81 119.71 113.56 116.99 C 113.36 116.58 112.96 115.74 112.76 115.32 C 108.06 111.83 101.59 110.81 96.00 112.54 M 115.13 150.13 C 111.37 152.46 111.92 160.35 116.86 160.60 C 122.97 160.06 121.55 147.77 115.13 150.13 M 62.26 152.11 C 62.04 152.42 61.61 153.03 61.39 153.33 C 59.96 167.57 73.47 181.08 87.71 179.65 C 90.23 178.85 90.35 175.01 87.98 173.95 C 86.15 173.60 84.28 173.52 82.45 173.19 C 75.45 171.74 69.56 165.99 67.95 159.02 C 67.51 157.02 67.50 154.95 67.08 152.95 C 66.06 151.32 63.75 150.73 62.26 152.11 Z" />
<path fill="#3ac457" opacity="1.00" d=" M 126.15 139.08 C 122.73 138.85 121.92 135.09 123.71 132.62 C 124.58 134.75 125.39 136.91 126.15 139.08 Z" />
</g>
<g id="#bababaff">
<path fill="#bababa" opacity="1.00" d=" M 82.52 45.44 C 87.78 45.21 93.05 45.10 98.30 45.59 C 98.57 48.31 99.25 51.05 98.94 53.78 C 97.78 55.88 96.49 57.90 95.67 60.16 C 94.91 61.75 94.10 63.31 93.31 64.88 C 93.07 64.74 92.59 64.45 92.35 64.30 C 89.75 70.23 87.90 76.44 85.62 82.49 C 67.21 84.30 49.57 96.02 42.40 113.30 C 42.28 113.63 42.04 114.31 41.92 114.65 C 37.86 113.41 33.64 112.27 29.36 112.45 C 27.19 112.74 26.15 115.03 26.32 117.02 C 26.21 126.02 26.32 135.04 26.22 144.04 C 26.35 146.29 26.08 149.33 28.38 150.61 C 31.37 151.25 34.45 150.76 37.46 150.52 C 37.80 149.28 38.12 148.03 38.43 146.78 C 41.92 161.52 51.64 174.76 65.06 181.89 C 65.88 182.18 66.70 182.44 67.54 182.67 C 80.53 192.01 99.29 192.11 112.43 183.03 C 125.09 178.20 134.66 166.91 139.68 154.55 C 138.92 153.42 137.30 154.00 136.16 153.69 C 133.84 159.23 130.86 164.61 126.46 168.77 C 127.01 166.43 127.83 164.05 127.30 161.62 L 127.30 161.62 C 130.74 158.48 131.97 153.82 134.17 149.86 C 132.76 149.85 131.35 149.86 129.95 149.89 C 131.09 148.94 132.16 147.91 133.26 146.91 C 134.50 148.89 135.22 151.43 137.13 152.86 C 142.45 154.36 145.63 148.59 147.54 144.60 C 150.51 138.47 146.96 131.98 144.63 126.29 C 143.11 122.82 147.52 120.84 148.57 118.01 C 147.89 115.25 146.45 112.75 145.39 110.13 C 142.64 109.74 140.14 110.90 138.16 112.75 C 133.71 102.78 125.63 95.08 116.69 89.08 C 124.16 87.93 131.26 84.92 137.06 80.03 C 141.14 83.02 144.24 87.05 147.76 90.62 C 153.15 88.23 158.56 85.87 164.02 83.65 C 166.98 87.85 169.85 92.21 171.76 97.00 C 167.79 101.35 162.26 104.15 157.80 108.05 C 159.65 113.74 161.30 119.50 162.33 125.41 C 168.23 125.93 174.12 126.62 180.00 127.38 L 180.00 143.80 C 174.06 143.52 168.21 144.99 162.30 145.38 C 161.32 151.31 159.54 157.04 157.78 162.77 C 162.56 166.22 167.27 169.78 172.00 173.32 C 169.83 178.16 167.09 182.71 164.12 187.10 C 158.60 185.01 153.35 182.25 147.79 180.27 C 143.47 184.21 139.88 188.97 135.09 192.43 C 137.12 198.08 139.79 203.46 142.03 209.03 C 137.75 212.17 133.14 214.85 128.30 217.06 C 124.72 212.37 121.21 207.63 117.72 202.87 C 111.98 204.56 106.28 206.43 100.34 207.35 C 99.42 213.22 99.47 219.26 98.02 225.03 C 92.81 225.78 87.51 225.52 82.29 225.03 C 81.24 219.20 81.53 213.03 79.87 207.38 C 74.19 206.22 68.66 204.46 63.05 203.08 C 58.86 207.21 56.39 212.80 52.10 216.83 C 47.22 215.00 42.84 212.04 38.59 209.07 C 40.80 203.59 43.19 198.18 45.56 192.76 C 40.97 188.98 37.15 184.36 32.85 180.35 C 27.17 182.10 22.01 185.23 16.31 187.00 C 13.49 182.58 10.60 178.14 8.72 173.22 C 13.28 169.59 18.24 166.47 22.62 162.63 C 21.30 156.92 19.08 151.39 18.36 145.51 C 12.42 144.58 6.41 144.19 0.47 143.20 C 0.32 138.14 -0.11 133.04 0.58 128.00 L 1.16 127.47 C 6.80 126.27 12.61 126.12 18.30 125.29 C 19.13 119.42 21.11 113.84 22.69 108.18 C 18.28 104.12 12.98 101.16 8.55 97.11 C 10.86 92.51 13.51 88.10 16.24 83.74 C 22.02 85.54 27.36 88.44 33.00 90.60 C 36.82 86.07 41.05 81.90 45.54 78.03 C 43.26 72.58 40.90 67.16 38.50 61.76 C 42.68 58.77 47.00 55.72 51.89 54.05 C 56.48 57.54 58.83 63.67 63.11 67.73 C 68.81 66.19 74.42 64.22 80.29 63.33 C 80.97 57.36 81.48 51.36 82.52 45.44 M 26.89 163.04 C 27.27 166.27 31.19 164.20 33.28 164.26 C 32.33 165.92 31.35 167.57 30.33 169.19 C 32.94 172.26 37.08 168.95 40.30 168.74 C 39.59 165.57 35.72 168.06 33.57 168.04 C 34.27 166.05 36.79 164.24 36.03 162.07 C 34.09 161.83 32.15 162.26 30.22 162.44 C 31.36 160.32 33.13 158.37 33.08 155.82 C 29.95 156.98 28.66 160.47 26.89 163.04 M 146.67 156.60 C 146.41 158.45 147.88 159.33 149.16 160.23 C 148.43 161.50 147.67 162.76 146.93 164.02 C 145.50 163.41 143.63 161.50 142.93 163.97 C 144.85 166.11 147.51 167.37 149.78 169.09 C 150.09 168.54 150.70 167.44 151.01 166.90 C 150.07 166.24 149.12 165.59 148.22 164.87 C 148.80 163.50 149.55 162.21 150.27 160.92 C 152.02 161.76 154.26 162.71 155.09 160.25 C 152.36 158.87 149.75 157.07 146.67 156.60 M 136.90 173.00 C 137.96 172.31 138.99 171.56 140.07 170.91 C 142.18 171.87 143.29 174.64 145.76 174.76 C 147.32 172.01 143.05 170.74 141.60 168.96 C 142.14 167.86 142.68 166.77 143.20 165.66 C 140.15 166.69 137.83 170.00 136.90 173.00 M 33.47 172.96 C 34.64 175.05 37.45 174.84 38.93 176.66 C 38.98 176.03 39.08 174.78 39.12 174.16 C 39.89 174.10 41.43 173.97 42.20 173.91 C 41.86 175.60 40.82 176.93 39.70 178.19 C 40.78 179.51 40.89 181.63 42.66 182.30 C 43.08 178.78 43.67 175.29 44.16 171.78 C 40.57 171.88 37.02 172.44 33.47 172.96 M 132.95 174.89 C 132.16 177.88 136.07 179.84 137.47 182.27 C 139.77 180.83 141.74 178.93 143.38 176.78 L 142.98 175.83 C 141.08 176.49 139.86 178.32 138.22 179.45 C 136.55 177.91 135.40 175.19 132.95 174.89 M 47.26 178.31 C 45.89 180.87 48.98 182.92 49.35 185.37 C 47.13 184.74 45.95 182.54 43.82 181.73 C 44.17 185.21 47.79 187.45 51.10 187.15 C 52.54 184.34 49.62 182.17 48.62 179.77 C 50.81 179.69 51.87 182.27 54.10 181.90 C 52.75 179.56 50.24 176.70 47.26 178.31 M 126.42 180.36 C 125.52 183.64 126.16 187.16 126.06 190.53 C 127.59 190.10 128.01 188.65 128.46 187.31 C 129.76 186.34 131.10 185.41 132.45 184.51 C 133.93 184.75 135.58 184.86 136.32 183.24 C 133.00 182.50 129.79 180.09 126.42 180.36 M 54.64 181.80 C 55.10 182.97 55.88 183.87 56.98 184.49 C 55.80 186.65 54.51 188.77 53.69 191.10 C 57.00 191.86 57.37 187.73 58.87 185.73 C 59.96 186.07 61.05 186.41 62.15 186.74 C 61.25 183.63 57.22 183.10 54.64 181.80 M 115.02 186.98 C 115.77 189.53 116.99 191.91 118.05 194.35 C 120.60 193.13 124.09 192.73 125.34 189.84 C 123.13 190.19 121.27 191.86 119.03 191.91 C 118.07 188.87 123.00 189.57 123.33 186.75 C 121.53 187.31 119.79 188.05 118.08 188.86 C 117.87 188.49 117.44 187.76 117.22 187.39 C 119.01 186.48 121.01 185.74 122.13 183.97 C 119.61 184.46 116.99 185.28 115.02 186.98 M 63.42 186.09 C 62.28 188.58 61.16 191.08 60.07 193.58 C 62.70 194.69 65.33 196.06 68.27 196.05 C 66.96 194.25 64.64 193.95 62.77 193.00 C 63.30 189.70 67.05 192.82 69.03 192.89 C 68.61 190.47 65.48 190.67 63.76 189.64 C 65.13 187.04 67.87 189.55 69.90 189.87 C 69.62 187.00 65.49 187.32 63.42 186.09 M 111.83 187.92 C 111.74 189.66 111.64 191.40 111.52 193.14 C 109.85 192.22 108.91 190.53 107.71 189.13 C 105.08 189.31 106.42 193.26 105.74 195.10 C 104.04 193.86 103.03 189.38 100.56 190.83 C 101.80 193.58 103.34 196.64 105.91 198.33 C 108.25 197.69 107.35 194.51 107.97 192.73 C 109.18 194.06 110.33 195.45 111.41 196.89 C 112.10 196.47 112.79 196.04 113.48 195.62 C 113.57 192.77 113.70 189.92 113.82 187.07 C 113.32 187.28 112.33 187.71 111.83 187.92 M 83.85 193.59 C 85.39 193.35 86.93 193.11 88.48 192.88 C 88.41 196.28 84.52 197.30 82.71 199.71 C 85.49 199.92 88.27 199.99 91.06 200.02 C 91.03 199.55 90.99 198.61 90.97 198.14 C 90.16 198.10 88.56 198.03 87.76 198.00 C 88.81 196.72 90.38 195.67 90.81 194.00 C 90.61 190.77 83.77 189.91 83.85 193.59 Z" />
<path fill="#bababa" opacity="1.00" d=" M 46.85 112.16 C 53.62 98.21 67.88 88.89 82.95 86.27 C 82.82 87.65 82.69 89.03 82.50 90.41 C 81.85 91.64 81.12 92.82 80.37 93.99 C 69.07 96.48 59.46 104.10 53.36 113.79 C 51.36 112.70 49.15 111.99 46.85 112.16 Z" />
<path fill="#bababa" opacity="1.00" d=" M 98.13 87.72 C 99.15 87.74 101.21 87.78 102.24 87.80 C 102.85 87.90 104.08 88.09 104.69 88.19 C 118.56 91.98 129.71 102.64 135.79 115.46 C 133.99 118.95 132.57 122.87 133.27 126.84 C 133.69 130.86 136.12 134.23 137.21 138.04 C 137.92 141.49 134.67 143.56 132.11 145.00 C 132.24 143.62 132.38 142.24 132.52 140.86 C 132.85 137.51 132.96 134.13 132.43 130.80 C 131.33 125.02 133.06 119.15 131.75 113.38 C 129.92 113.11 128.09 112.82 126.25 112.60 C 121.10 104.40 113.09 98.10 103.92 95.01 C 100.54 94.13 99.51 90.47 98.13 87.72 Z" />
</g>
<g id="#fefefeff">
<path fill="#fefefe" opacity="1.00" d=" M 104.19 151.45 C 105.45 150.22 107.22 149.95 108.89 149.64 C 112.02 151.87 110.73 155.50 108.83 158.07 C 110.35 158.03 111.15 158.76 111.24 160.28 C 109.30 160.34 107.36 160.38 105.42 160.40 C 106.60 157.97 108.17 155.68 108.92 153.06 C 108.69 151.44 106.24 151.27 106.05 153.05 C 106.99 154.56 106.72 155.76 105.25 156.68 C 104.35 155.07 103.51 153.33 104.19 151.45 Z" />
<path fill="#fefefe" opacity="1.00" d=" M 115.13 150.13 C 121.55 147.77 122.97 160.06 116.86 160.60 C 111.92 160.35 111.37 152.46 115.13 150.13 M 115.56 152.53 C 114.27 154.30 114.42 157.47 116.44 158.69 C 120.12 158.50 119.02 149.91 115.56 152.53 Z" />
</g>
<g id="#aaa5a8ff">
<path fill="#aaa5a8" opacity="1.00" d=" M 138.16 112.75 C 140.14 110.90 142.64 109.74 145.39 110.13 C 146.45 112.75 147.89 115.25 148.57 118.01 C 147.52 120.84 143.11 122.82 144.63 126.29 C 146.96 131.98 150.51 138.47 147.54 144.60 C 145.63 148.59 142.45 154.36 137.13 152.86 C 135.22 151.43 134.50 148.89 133.26 146.91 C 132.16 147.91 131.09 148.94 129.95 149.89 C 128.40 150.03 126.85 150.17 125.30 150.29 L 124.74 150.31 C 124.28 150.32 123.35 150.34 122.88 150.34 C 115.12 148.72 109.72 140.30 111.42 132.58 C 111.98 129.15 114.16 126.36 116.42 123.87 C 116.48 122.23 116.56 120.59 116.51 118.95 C 118.87 115.70 121.96 112.70 126.25 112.60 C 128.09 112.82 129.92 113.11 131.75 113.38 C 133.06 119.15 131.33 125.02 132.43 130.80 C 129.78 132.35 126.65 132.20 123.71 132.62 C 121.92 135.09 122.73 138.85 126.15 139.08 C 128.38 139.25 130.81 139.14 132.52 140.86 C 132.38 142.24 132.24 143.62 132.11 145.00 C 134.67 143.56 137.92 141.49 137.21 138.04 C 136.12 134.23 133.69 130.86 133.27 126.84 C 132.57 122.87 133.99 118.95 135.79 115.46 C 136.55 114.53 137.34 113.63 138.16 112.75 M 135.37 125.04 C 135.25 129.78 138.67 133.56 139.67 138.03 C 140.28 141.37 137.75 144.01 135.45 146.01 C 136.39 147.82 137.31 149.65 138.20 151.48 C 143.80 148.76 147.60 142.14 145.95 135.94 C 145.13 131.51 141.30 127.79 142.13 123.07 C 142.53 120.75 144.53 119.28 146.12 117.76 C 145.30 115.82 144.45 113.90 143.59 111.98 C 138.60 114.21 135.20 119.57 135.37 125.04 M 121.19 117.17 C 118.90 119.09 118.86 122.21 119.13 124.94 C 113.33 129.09 111.61 137.99 116.47 143.50 C 119.58 147.73 125.06 148.67 129.98 148.11 C 129.97 145.98 129.97 143.85 129.99 141.72 C 127.31 141.56 124.14 142.11 122.06 139.98 C 119.49 137.71 119.54 133.36 122.16 131.14 C 124.20 129.12 127.25 129.73 129.83 129.72 C 129.94 127.50 129.98 125.27 129.96 123.04 C 128.52 123.03 127.08 123.01 125.65 123.00 L 125.75 121.76 C 127.14 121.75 128.53 121.74 129.93 121.73 C 129.96 119.50 129.96 117.27 129.94 115.05 C 126.94 115.08 123.48 114.79 121.19 117.17 Z" />
</g>
<g id="#acacacff">
<path fill="#acacac" opacity="1.00" d=" M 29.36 112.45 C 33.64 112.27 37.86 113.41 41.92 114.65 C 42.04 114.31 42.28 113.63 42.40 113.30 C 43.88 112.91 45.36 112.50 46.85 112.16 C 49.15 111.99 51.36 112.70 53.36 113.79 C 53.11 123.42 53.18 133.07 53.52 142.70 C 53.54 145.30 53.02 147.84 52.35 150.34 L 51.72 150.38 C 48.89 150.55 46.08 150.91 43.29 151.32 C 40.89 147.65 41.65 143.13 41.09 139.00 C 40.53 134.52 42.40 129.16 38.31 125.89 C 38.22 132.85 38.10 139.82 38.43 146.78 C 38.12 148.03 37.80 149.28 37.46 150.52 C 34.45 150.76 31.37 151.25 28.38 150.61 C 26.08 149.33 26.35 146.29 26.22 144.04 C 26.32 135.04 26.21 126.02 26.32 117.02 C 26.15 115.03 27.19 112.74 29.36 112.45 M 29.13 115.08 C 29.15 126.09 29.23 137.10 29.10 148.11 C 31.33 148.13 33.56 148.12 35.79 148.08 C 35.71 139.31 35.62 130.54 35.82 121.78 C 39.71 123.42 43.33 126.54 43.93 130.93 C 44.37 136.65 44.02 142.40 44.05 148.12 C 46.29 148.13 48.52 148.11 50.75 148.05 C 50.68 137.09 50.66 126.13 50.78 115.17 C 48.57 115.12 46.37 115.09 44.17 115.08 C 44.12 116.37 44.07 117.66 44.03 118.96 C 39.79 115.66 34.35 114.94 29.13 115.08 Z" />
</g>
<g id="#a9adaaff">
<path fill="#a9adaa" opacity="1.00" d=" M 96.00 112.54 C 101.59 110.81 108.06 111.83 112.76 115.32 C 112.96 115.74 113.36 116.58 113.56 116.99 C 112.81 119.71 110.96 122.01 109.25 124.21 C 107.90 125.93 105.75 124.24 104.15 123.86 C 98.98 121.59 92.70 126.54 93.20 132.04 C 93.31 136.47 97.50 140.40 101.98 139.94 C 104.34 139.99 106.31 137.81 108.66 138.25 C 110.79 140.06 112.29 142.55 113.71 144.94 C 114.74 147.78 111.16 149.37 108.89 149.64 C 107.22 149.95 105.45 150.22 104.19 151.45 C 99.05 151.85 93.66 150.76 89.56 147.51 C 83.56 143.15 80.47 135.20 81.98 127.94 C 83.25 120.71 88.94 114.50 96.00 112.54 M 96.06 115.14 C 87.06 117.99 81.44 128.89 85.22 137.75 C 88.63 147.85 102.62 152.63 111.08 145.89 C 110.45 143.97 109.02 142.48 107.88 140.86 C 104.76 142.06 101.30 143.27 98.00 141.95 C 91.72 139.99 88.60 131.79 92.16 126.21 C 95.04 120.98 102.26 119.22 107.28 122.44 C 108.71 120.74 109.99 118.92 111.14 117.01 C 106.62 114.43 101.07 113.29 96.06 115.14 Z" />
</g>
<g id="#fafcf9ff">
<path fill="#fafcf9" opacity="1.00" d=" M 135.37 125.04 C 135.20 119.57 138.60 114.21 143.59 111.98 C 144.45 113.90 145.30 115.82 146.12 117.76 C 144.53 119.28 142.53 120.75 142.13 123.07 C 141.30 127.79 145.13 131.51 145.95 135.94 C 147.60 142.14 143.80 148.76 138.20 151.48 C 137.31 149.65 136.39 147.82 135.45 146.01 C 137.75 144.01 140.28 141.37 139.67 138.03 C 138.67 133.56 135.25 129.78 135.37 125.04 Z" />
<path fill="#fafcf9" opacity="1.00" d=" M 96.06 115.14 C 101.07 113.29 106.62 114.43 111.14 117.01 C 109.99 118.92 108.71 120.74 107.28 122.44 C 102.26 119.22 95.04 120.98 92.16 126.21 C 88.60 131.79 91.72 139.99 98.00 141.95 C 101.30 143.27 104.76 142.06 107.88 140.86 C 109.02 142.48 110.45 143.97 111.08 145.89 C 102.62 152.63 88.63 147.85 85.22 137.75 C 81.44 128.89 87.06 117.99 96.06 115.14 Z" />
<path fill="#fafcf9" opacity="1.00" d=" M 59.67 122.65 C 63.85 116.64 71.58 114.13 78.64 115.37 C 78.63 126.25 78.47 137.13 78.72 148.00 C 76.47 148.18 74.21 148.24 71.96 148.21 C 71.97 146.21 71.99 144.21 71.98 142.22 C 68.93 142.29 65.89 142.30 62.84 142.21 C 62.81 144.20 62.80 146.19 62.81 148.18 C 60.58 148.20 58.35 148.19 56.12 148.15 C 56.77 139.66 54.10 129.98 59.67 122.65 M 62.78 135.85 C 65.84 135.77 68.91 135.76 71.97 135.82 C 72.07 131.13 72.05 126.45 72.01 121.76 C 65.78 123.21 61.73 129.57 62.78 135.85 Z" />
<path fill="#fafcf9" opacity="1.00" d=" M 121.19 117.17 C 123.48 114.79 126.94 115.08 129.94 115.05 C 129.96 117.27 129.96 119.50 129.93 121.73 C 128.53 121.74 127.14 121.75 125.75 121.76 L 125.65 123.00 C 127.08 123.01 128.52 123.03 129.96 123.04 C 129.98 125.27 129.94 127.50 129.83 129.72 C 127.25 129.73 124.20 129.12 122.16 131.14 C 119.54 133.36 119.49 137.71 122.06 139.98 C 124.14 142.11 127.31 141.56 129.99 141.72 C 129.97 143.85 129.97 145.98 129.98 148.11 C 125.06 148.67 119.58 147.73 116.47 143.50 C 111.61 137.99 113.33 129.09 119.13 124.94 C 118.86 122.21 118.90 119.09 121.19 117.17 Z" />
</g>
<g id="#a4a4a4ff">
<path fill="#a4a4a4" opacity="1.00" d=" M 67.63 113.59 C 71.86 112.83 77.09 111.43 80.82 114.18 C 81.58 124.07 80.93 134.05 81.17 143.98 C 81.02 146.05 81.54 148.45 80.19 150.23 C 77.12 151.05 73.80 151.02 70.71 150.36 C 69.19 149.02 69.72 146.81 69.43 145.03 C 68.09 144.93 66.75 145.02 65.42 144.94 C 64.91 146.91 65.95 150.48 62.95 150.55 C 60.06 150.89 56.93 151.14 54.20 149.96 C 53.48 147.90 53.65 145.69 53.56 143.55 C 54.11 137.04 52.94 130.08 55.98 124.02 C 58.37 119.18 62.85 115.85 67.63 113.59 M 59.67 122.65 C 54.10 129.98 56.77 139.66 56.12 148.15 C 58.35 148.19 60.58 148.20 62.81 148.18 C 62.80 146.19 62.81 144.20 62.84 142.21 C 65.89 142.30 68.93 142.29 71.98 142.22 C 71.99 144.21 71.97 146.21 71.96 148.21 C 74.21 148.24 76.47 148.18 78.72 148.00 C 78.47 137.13 78.63 126.25 78.64 115.37 C 71.58 114.13 63.85 116.64 59.67 122.65 Z" />
</g>
<g id="#fbfcfaff">
<path fill="#fbfcfa" opacity="1.00" d=" M 29.13 115.08 C 34.35 114.94 39.79 115.66 44.03 118.96 C 44.07 117.66 44.12 116.37 44.17 115.08 C 46.37 115.09 48.57 115.12 50.78 115.17 C 50.66 126.13 50.68 137.09 50.75 148.05 C 48.52 148.11 46.29 148.13 44.05 148.12 C 44.02 142.40 44.37 136.65 43.93 130.93 C 43.33 126.54 39.71 123.42 35.82 121.78 C 35.62 130.54 35.71 139.31 35.79 148.08 C 33.56 148.12 31.33 148.13 29.10 148.11 C 29.23 137.10 29.15 126.09 29.13 115.08 Z" />
</g>
<g id="#ada8acff">
<path fill="#ada8ac" opacity="1.00" d=" M 62.78 135.85 C 61.73 129.57 65.78 123.21 72.01 121.76 C 72.05 126.45 72.07 131.13 71.97 135.82 C 68.91 135.76 65.84 135.77 62.78 135.85 M 65.01 133.00 C 66.37 133.20 67.72 133.25 69.08 133.15 C 70.07 130.95 69.36 128.31 69.55 125.95 C 66.67 127.06 65.67 130.26 65.01 133.00 Z" />
</g>
<g id="#34c451ff">
<path fill="#34c451" opacity="1.00" d=" M 65.01 133.00 C 65.67 130.26 66.67 127.06 69.55 125.95 C 69.36 128.31 70.07 130.95 69.08 133.15 C 67.72 133.25 66.37 133.20 65.01 133.00 Z" />
</g>
<g id="#b9bab9ff">
<path fill="#b9bab9" opacity="1.00" d=" M 43.29 151.32 C 46.08 150.91 48.89 150.55 51.72 150.38 C 50.00 152.02 51.30 154.34 52.47 155.85 C 52.52 156.29 52.61 157.18 52.66 157.62 C 52.00 161.67 53.91 165.36 54.87 169.17 C 49.06 164.75 46.23 157.76 43.29 151.32 Z" />
</g>
<g id="#e9e2e7ff">
</g>
<g id="#f5fbf6ff">
<path fill="#f5fbf6" opacity="1.00" d=" M 125.30 150.29 C 126.85 150.17 128.40 150.03 129.95 149.89 C 131.35 149.86 132.76 149.85 134.17 149.86 C 131.97 153.82 130.74 158.48 127.30 161.62 C 127.33 159.72 127.65 157.86 128.11 156.03 C 129.40 154.92 130.24 153.45 130.91 151.90 C 130.54 152.37 129.79 153.29 129.42 153.75 C 128.02 152.63 126.66 151.46 125.30 150.29 Z" />
</g>
<g id="#3cc458ff">
<path fill="#3cc458" opacity="1.00" d=" M 115.56 152.53 C 119.02 149.91 120.12 158.50 116.44 158.69 C 114.42 157.47 114.27 154.30 115.56 152.53 Z" />
</g>
<g id="#fdfdfdff">
</g>
<g id="#f7f7f7ff">
<path fill="#f7f7f7" opacity="1.00" d=" M 146.67 156.60 C 149.75 157.07 152.36 158.87 155.09 160.25 C 154.26 162.71 152.02 161.76 150.27 160.92 C 149.55 162.21 148.80 163.50 148.22 164.87 C 149.12 165.59 150.07 166.24 151.01 166.90 C 150.70 167.44 150.09 168.54 149.78 169.09 C 147.51 167.37 144.85 166.11 142.93 163.97 C 143.63 161.50 145.50 163.41 146.93 164.02 C 147.67 162.76 148.43 161.50 149.16 160.23 C 147.88 159.33 146.41 158.45 146.67 156.60 Z" />
</g>
<g id="#f5f6f5ff">
<path fill="#f5f6f5" opacity="1.00" d=" M 136.90 173.00 C 137.83 170.00 140.15 166.69 143.20 165.66 C 142.68 166.77 142.14 167.86 141.60 168.96 C 143.05 170.74 147.32 172.01 145.76 174.76 C 143.29 174.64 142.18 171.87 140.07 170.91 C 138.99 171.56 137.96 172.31 136.90 173.00 Z" />
</g>
<g id="#fafbfaff">
<path fill="#fafbfa" opacity="1.00" d=" M 33.47 172.96 C 37.02 172.44 40.57 171.88 44.16 171.78 C 43.67 175.29 43.08 178.78 42.66 182.30 C 40.89 181.63 40.78 179.51 39.70 178.19 C 40.82 176.93 41.86 175.60 42.20 173.91 C 41.43 173.97 39.89 174.10 39.12 174.16 C 39.08 174.78 38.98 176.03 38.93 176.66 C 37.45 174.84 34.64 175.05 33.47 172.96 Z" />
</g>
<g id="#f6f6f5ff">
<path fill="#f6f6f5" opacity="1.00" d=" M 132.95 174.89 C 135.40 175.19 136.55 177.91 138.22 179.45 C 139.86 178.32 141.08 176.49 142.98 175.83 L 143.38 176.78 C 141.74 178.93 139.77 180.83 137.47 182.27 C 136.07 179.84 132.16 177.88 132.95 174.89 Z" />
</g>
<g id="#f6f7f6ff">
<path fill="#f6f7f6" opacity="1.00" d=" M 47.26 178.31 C 50.24 176.70 52.75 179.56 54.10 181.90 C 51.87 182.27 50.81 179.69 48.62 179.77 C 49.62 182.17 52.54 184.34 51.10 187.15 C 47.79 187.45 44.17 185.21 43.82 181.73 C 45.95 182.54 47.13 184.74 49.35 185.37 C 48.98 182.92 45.89 180.87 47.26 178.31 Z" />
</g>
<g id="#f9faf9ff">
<path fill="#f9faf9" opacity="1.00" d=" M 126.42 180.36 C 129.79 180.09 133.00 182.50 136.32 183.24 C 135.58 184.86 133.93 184.75 132.45 184.51 C 131.10 185.41 129.76 186.34 128.46 187.31 C 128.01 188.65 127.59 190.10 126.06 190.53 C 126.16 187.16 125.52 183.64 126.42 180.36 M 128.19 185.46 C 129.54 186.29 131.93 183.35 129.81 182.76 C 128.29 182.26 127.25 184.36 128.19 185.46 Z" />
</g>
<g id="#f8f8f7ff">
<path fill="#f8f8f7" opacity="1.00" d=" M 54.64 181.80 C 57.22 183.10 61.25 183.63 62.15 186.74 C 61.05 186.41 59.96 186.07 58.87 185.73 C 57.37 187.73 57.00 191.86 53.69 191.10 C 54.51 188.77 55.80 186.65 56.98 184.49 C 55.88 183.87 55.10 182.97 54.64 181.80 Z" />
</g>
<g id="#bbbbbaff">
<path fill="#bbbbba" opacity="1.00" d=" M 128.19 185.46 C 127.25 184.36 128.29 182.26 129.81 182.76 C 131.93 183.35 129.54 186.29 128.19 185.46 Z" />
</g>
<g id="#f8f9f8ff">
<path fill="#f8f9f8" opacity="1.00" d=" M 115.02 186.98 C 116.99 185.28 119.61 184.46 122.13 183.97 C 121.01 185.74 119.01 186.48 117.22 187.39 C 117.44 187.76 117.87 188.49 118.08 188.86 C 119.79 188.05 121.53 187.31 123.33 186.75 C 123.00 189.57 118.07 188.87 119.03 191.91 C 121.27 191.86 123.13 190.19 125.34 189.84 C 124.09 192.73 120.60 193.13 118.05 194.35 C 116.99 191.91 115.77 189.53 115.02 186.98 Z" />
</g>
<g id="#fcfcfcff">
<path fill="#fcfcfc" opacity="1.00" d=" M 63.42 186.09 C 65.49 187.32 69.62 187.00 69.90 189.87 C 67.87 189.55 65.13 187.04 63.76 189.64 C 65.48 190.67 68.61 190.47 69.03 192.89 C 67.05 192.82 63.30 189.70 62.77 193.00 C 64.64 193.95 66.96 194.25 68.27 196.05 C 65.33 196.06 62.70 194.69 60.07 193.58 C 61.16 191.08 62.28 188.58 63.42 186.09 Z" />
<path fill="#fcfcfc" opacity="1.00" d=" M 111.83 187.92 C 112.33 187.71 113.32 187.28 113.82 187.07 C 113.70 189.92 113.57 192.77 113.48 195.62 C 112.79 196.04 112.10 196.47 111.41 196.89 C 110.33 195.45 109.18 194.06 107.97 192.73 C 107.35 194.51 108.25 197.69 105.91 198.33 C 103.34 196.64 101.80 193.58 100.56 190.83 C 103.03 189.38 104.04 193.86 105.74 195.10 C 106.42 193.26 105.08 189.31 107.71 189.13 C 108.91 190.53 109.85 192.22 111.52 193.14 C 111.64 191.40 111.74 189.66 111.83 187.92 Z" />
</g>
<g id="#f3f4f3ff">
<path fill="#f3f4f3" opacity="1.00" d=" M 83.85 193.59 C 83.77 189.91 90.61 190.77 90.81 194.00 C 90.38 195.67 88.81 196.72 87.76 198.00 C 88.56 198.03 90.16 198.10 90.97 198.14 C 90.99 198.61 91.03 199.55 91.06 200.02 C 88.27 199.99 85.49 199.92 82.71 199.71 C 84.52 197.30 88.41 196.28 88.48 192.88 C 86.93 193.11 85.39 193.35 83.85 193.59 Z" />
</g>
</svg>
