<?xml version="1.0" encoding="UTF-8" ?>
<!DOCTYPE svg PUBLIC "-//W3C//DTD SVG 1.1//EN" "http://www.w3.org/Graphics/SVG/1.1/DTD/svg11.dtd">
<svg width="380pt" height="255pt" viewBox="-40 0 180 255" version="1.1" xmlns="http://www.w3.org/2000/svg">
<g id="#ffffffff">
<path fill="#ffffff" opacity="1.00" d=" M 98.66 61.02 C 108.03 47.87 125.88 42.52 141.27 46.54 C 144.57 45.68 142.38 49.02 141.06 49.02 C 133.60 51.30 126.73 55.09 120.04 59.03 C 112.87 63.35 105.86 67.99 99.39 73.32 C 96.83 75.35 94.79 77.99 91.99 79.73 C 91.63 72.93 94.93 66.50 98.66 61.02 Z" />
<path fill="#ffffff" opacity="1.00" d=" M 135.31 52.38 C 139.05 50.25 143.33 49.75 147.34 48.43 C 147.40 60.57 141.09 72.40 131.08 79.23 C 120.64 86.59 106.84 87.88 94.77 84.25 C 94.26 82.71 92.14 80.57 94.08 79.28 C 106.39 68.35 120.59 59.66 135.31 52.38 Z" />
<path fill="#ffffff" opacity="1.00" d=" M 135.51 123.93 C 135.71 118.83 139.13 114.50 143.40 111.98 C 144.26 113.87 145.12 115.76 145.97 117.66 C 144.14 119.38 141.88 121.21 141.91 123.98 C 141.74 129.06 146.07 132.98 146.11 138.07 C 146.67 143.64 143.05 148.81 138.24 151.30 C 137.41 149.57 136.58 147.84 135.75 146.11 C 137.83 143.90 140.50 141.32 139.82 137.98 C 138.64 133.22 134.96 129.08 135.51 123.93 Z" />
<path fill="#ffffff" opacity="1.00" d=" M 84.39 128.83 C 85.73 120.96 92.94 114.50 100.98 114.35 C 104.53 114.12 107.89 115.51 111.00 117.05 C 109.89 118.72 108.80 120.39 107.71 122.07 C 103.62 120.61 98.59 119.82 95.01 122.89 C 89.22 126.81 89.17 136.19 94.76 140.31 C 98.46 143.47 103.70 142.94 107.83 140.98 C 109.01 142.62 110.16 144.27 111.27 145.96 C 106.75 148.81 100.96 149.88 95.88 147.95 C 88.15 145.41 82.89 136.88 84.39 128.83 Z" />
<path fill="#ffffff" opacity="1.00" d=" M 29.20 115.14 C 34.46 115.03 39.88 115.87 44.18 119.12 C 44.19 117.81 44.20 116.50 44.21 115.19 C 46.37 115.19 48.53 115.21 50.69 115.23 C 50.57 126.12 50.57 137.01 50.69 147.91 C 48.49 147.95 46.29 147.98 44.10 148.00 C 44.13 142.35 44.45 136.68 44.03 131.03 C 43.52 126.50 39.69 123.30 35.72 121.64 C 35.57 130.39 35.56 139.15 35.74 147.90 C 33.55 147.95 31.35 147.97 29.15 147.98 C 29.35 137.04 29.25 126.09 29.20 115.14 Z" />
<path fill="#ffffff" opacity="1.00" d=" M 57.35 127.30 C 60.28 118.77 69.78 113.77 78.54 115.47 C 78.45 126.26 78.33 137.06 78.59 147.85 C 76.41 147.93 74.22 147.99 72.04 148.02 C 72.08 146.02 72.12 144.01 72.16 142.01 C 69.01 141.99 65.86 141.97 62.71 141.98 C 62.71 143.96 62.72 145.94 62.74 147.93 C 60.57 147.95 58.40 147.97 56.24 147.97 C 56.68 141.09 55.36 134.00 57.35 127.30 M 62.64 136.01 C 65.79 135.97 68.94 135.96 72.10 135.97 C 72.12 131.20 72.14 126.43 72.08 121.66 C 65.64 123.05 61.64 129.61 62.64 136.01 Z" />
<path fill="#ffffff" opacity="1.00" d=" M 120.77 117.81 C 122.95 115.02 126.70 115.15 129.88 115.10 C 129.87 117.25 129.86 119.40 129.84 121.56 C 128.32 121.94 125.91 120.95 125.28 122.95 C 126.82 123.03 128.35 123.09 129.90 123.15 C 129.87 125.29 129.84 127.43 129.81 129.57 C 127.02 129.61 123.51 128.99 121.60 131.57 C 119.30 133.89 119.50 137.85 121.95 139.99 C 123.98 142.21 127.20 141.75 129.90 141.93 C 129.89 143.96 129.89 145.99 129.90 148.02 C 126.71 147.95 123.24 148.40 120.40 146.62 C 115.92 144.25 113.13 139.08 113.89 134.03 C 113.98 130.26 116.74 127.46 119.22 124.96 C 119.08 122.49 118.88 119.72 120.77 117.81 Z" />
<path fill="#ffffff" opacity="1.00" d=" M 123.74 132.65 C 126.79 132.36 129.87 132.12 132.81 131.19 C 132.80 134.33 132.76 137.47 132.70 140.61 C 130.85 139.04 128.46 138.87 126.14 139.03 C 125.39 136.88 124.59 134.76 123.74 132.65 Z" />
<path fill="#ffffff" opacity="1.00" d=" M 52.53 155.82 C 50.49 154.50 50.39 151.68 52.27 150.17 C 52.46 152.05 52.58 153.93 52.53 155.82 Z" />
<path fill="#ffffff" opacity="1.00" d=" M 104.39 151.66 C 104.84 151.13 105.30 150.62 105.77 150.11 C 106.55 150.01 108.12 149.81 108.91 149.70 C 111.99 151.90 110.72 155.46 108.87 158.01 C 110.29 158.11 111.11 158.86 111.33 160.26 C 109.36 160.33 107.39 160.37 105.42 160.39 C 106.55 158.24 107.78 156.12 108.70 153.86 C 109.66 152.62 107.38 150.78 106.42 152.28 C 105.64 153.56 107.75 156.25 105.22 156.41 C 104.28 155.02 103.32 153.29 104.39 151.66 Z" />
<path fill="#ffffff" opacity="1.00" d=" M 115.11 150.15 C 121.51 147.74 122.97 159.98 116.92 160.60 C 111.94 160.43 111.35 152.49 115.11 150.15 M 114.82 156.00 C 114.88 157.16 115.95 159.35 117.38 158.43 C 119.55 156.58 118.78 153.08 116.88 151.28 C 115.51 152.44 114.33 154.08 114.82 156.00 Z" />
<path fill="#ffffff" opacity="1.00" d=" M 122.92 150.31 C 123.37 150.31 124.26 150.29 124.71 150.29 C 124.56 153.67 124.53 157.05 124.54 160.43 C 124.04 160.44 123.03 160.44 122.52 160.44 C 122.46 157.06 122.33 153.65 122.92 150.31 Z" />
<path fill="#ffffff" opacity="1.00" d=" M 125.43 150.28 C 128.32 150.16 131.21 149.98 134.10 149.83 C 132.01 153.84 130.61 158.32 127.37 161.61 C 126.66 157.83 129.45 154.99 130.93 151.84 C 130.54 152.31 129.76 153.26 129.37 153.73 C 128.08 152.55 126.79 151.37 125.43 150.28 Z" />
<path fill="#ffffff" opacity="1.00" d=" M 62.20 152.10 C 63.70 150.83 66.18 151.21 67.06 153.03 C 67.39 154.28 67.43 155.59 67.63 156.87 C 68.35 164.78 74.80 171.66 82.54 173.20 C 84.36 173.52 86.20 173.62 88.01 173.97 C 90.69 175.16 89.98 179.72 86.97 179.77 C 74.61 180.36 63.02 170.36 61.47 158.13 C 61.37 156.15 60.59 153.70 62.20 152.10 Z" />
<path fill="#ffffff" opacity="1.00" d=" M 26.73 163.00 C 28.71 160.47 30.05 157.25 32.98 155.63 C 33.22 158.26 31.44 160.31 30.19 162.42 C 32.12 162.21 34.06 161.96 36.02 161.99 C 36.73 164.20 34.33 166.06 33.55 168.03 C 35.68 168.05 39.63 165.61 40.26 168.76 C 37.03 168.96 32.92 172.28 30.29 169.20 C 31.34 167.56 32.34 165.90 33.27 164.19 C 31.50 164.46 29.74 164.75 27.97 165.05 C 27.66 164.54 27.04 163.51 26.73 163.00 Z" />
<path fill="#ffffff" opacity="1.00" d=" M 146.96 156.72 C 149.84 157.14 152.26 158.93 154.84 160.14 C 154.61 160.64 154.15 161.63 153.92 162.13 C 152.69 161.71 151.46 161.29 150.23 160.87 C 149.50 162.23 148.77 163.60 148.03 164.96 C 149.02 165.59 150.02 166.23 151.01 166.87 C 150.71 167.40 150.12 168.46 149.82 168.99 C 147.69 167.30 144.75 166.24 143.22 164.03 C 143.28 161.44 145.77 163.64 146.97 164.07 C 147.71 162.79 148.45 161.51 149.18 160.23 C 148.37 159.13 145.84 158.50 146.96 156.72 Z" />
<path fill="#ffffff" opacity="1.00" d=" M 136.92 172.98 C 138.00 169.89 140.23 167.01 143.14 165.47 C 142.60 166.65 142.05 167.82 141.48 168.98 C 142.94 170.79 147.42 172.05 145.61 174.85 C 143.39 174.10 142.01 172.00 140.07 170.78 C 138.99 171.47 137.97 172.25 136.92 172.98 Z" />
<path fill="#ffffff" opacity="1.00" d=" M 33.34 173.06 C 36.92 172.41 40.53 171.97 44.17 171.78 C 43.61 175.31 43.11 178.85 42.54 182.38 C 40.80 181.12 40.60 178.83 39.84 176.98 C 41.64 176.91 41.89 175.30 42.23 173.90 C 41.44 173.93 39.85 173.97 39.06 173.99 C 39.21 174.65 39.51 175.96 39.66 176.62 C 37.54 175.47 35.17 174.69 33.34 173.06 Z" />
<path fill="#ffffff" opacity="1.00" d=" M 132.87 174.56 C 135.06 175.73 136.67 177.64 138.21 179.54 C 139.84 178.14 141.52 176.77 143.36 175.64 C 142.57 178.67 139.84 180.47 137.48 182.21 C 135.90 179.74 132.43 177.84 132.87 174.56 Z" />
<path fill="#ffffff" opacity="1.00" d=" M 46.97 178.09 C 50.16 177.29 52.75 179.34 54.11 182.05 C 52.17 181.42 50.44 180.30 48.57 179.49 C 49.53 182.01 52.15 184.21 51.23 187.14 C 47.85 187.40 44.32 185.22 43.86 181.70 C 45.75 182.95 47.39 184.58 49.50 185.50 C 48.54 183.07 46.79 180.83 46.97 178.09 Z" />
<path fill="#ffffff" opacity="1.00" d=" M 127.08 180.04 C 130.16 180.98 133.13 182.28 136.23 183.20 C 135.90 183.61 135.25 184.43 134.93 184.84 C 134.11 184.67 133.30 184.50 132.49 184.34 C 131.15 185.31 129.81 186.28 128.51 187.29 C 127.95 188.56 127.46 189.94 126.11 190.58 C 126.52 187.18 124.90 182.89 127.08 180.04 M 128.18 185.40 C 129.25 186.11 130.59 184.75 130.65 183.68 C 130.01 181.31 126.59 183.76 128.18 185.40 Z" />
<path fill="#ffffff" opacity="1.00" d=" M 54.57 181.87 C 57.27 183.06 61.03 183.72 62.22 186.77 C 61.09 186.40 59.97 186.02 58.85 185.63 C 57.45 187.72 56.94 191.33 53.78 191.25 C 54.60 188.91 55.75 186.72 56.96 184.58 C 56.06 183.76 55.26 182.86 54.57 181.87 Z" />
<path fill="#ffffff" opacity="1.00" d=" M 115.11 186.94 C 117.10 185.24 119.69 184.48 122.24 184.12 C 120.60 185.57 118.73 186.69 116.85 187.80 C 118.80 189.77 121.22 187.05 123.40 186.83 C 122.59 189.24 118.15 189.05 118.96 192.01 C 121.21 191.65 123.23 190.50 125.39 189.84 C 123.97 192.60 120.66 193.12 118.07 194.29 C 117.00 191.87 115.78 189.51 115.11 186.94 Z" />
<path fill="#ffffff" opacity="1.00" d=" M 63.41 186.10 C 65.59 187.24 69.27 187.09 70.00 189.86 C 67.87 189.28 65.72 187.94 63.47 188.85 C 65.06 190.63 68.17 190.53 69.12 192.87 C 67.12 192.85 63.22 189.69 62.80 192.96 C 64.68 193.91 66.83 194.44 68.32 196.03 C 65.40 195.92 62.72 194.74 60.08 193.62 C 61.17 191.10 62.28 188.60 63.41 186.10 Z" />
<path fill="#ffffff" opacity="1.00" d=" M 111.90 187.91 C 112.38 187.72 113.34 187.33 113.82 187.13 C 113.32 190.46 114.57 194.54 111.92 197.17 C 110.59 195.69 109.27 194.20 107.96 192.72 C 107.34 194.52 108.14 197.68 105.83 198.36 C 103.34 196.49 101.89 193.57 100.47 190.87 C 103.05 189.51 104.04 193.85 105.73 195.16 C 106.43 193.27 105.14 189.59 107.67 189.08 C 109.00 190.22 109.54 192.71 111.49 192.84 C 111.71 191.20 111.79 189.55 111.90 187.91 Z" />
<path fill="#ffffff" opacity="1.00" d=" M 83.79 193.51 C 84.21 190.60 87.95 191.03 89.84 192.17 C 92.16 194.32 88.95 196.42 87.65 198.06 C 89.17 198.21 91.13 197.90 91.34 199.94 C 88.48 199.92 85.63 199.79 82.79 199.62 C 84.83 197.46 88.36 196.16 88.66 192.84 C 87.03 193.05 85.41 193.29 83.79 193.51 Z" />
</g>
<g id="#3ac457ff">
<path fill="#3ac457" opacity="1.00" d=" M 95.67 60.15 C 101.67 50.71 111.93 44.24 123.01 42.78 C 132.16 41.35 141.47 43.46 149.75 47.40 C 151.01 59.71 145.53 72.20 135.89 79.86 C 127.31 86.94 115.67 89.81 104.72 88.19 C 104.10 88.09 102.85 87.90 102.22 87.80 C 100.11 87.38 98.03 86.83 95.95 86.29 C 102.39 97.38 109.91 107.79 116.45 118.82 C 116.57 120.50 116.56 122.20 116.56 123.89 C 113.88 126.69 111.49 130.08 111.28 134.09 C 110.43 141.43 115.75 148.68 122.92 150.31 C 122.33 153.65 122.46 157.06 122.52 160.44 C 123.03 160.44 124.04 160.44 124.54 160.43 C 124.53 157.05 124.56 153.67 124.71 150.29 L 125.43 150.28 C 126.79 151.37 128.08 152.55 129.37 153.73 C 129.76 153.26 130.54 152.31 130.93 151.84 C 129.45 154.99 126.66 157.83 127.37 161.61 L 127.37 161.64 C 125.13 170.32 119.63 177.82 112.42 183.08 C 99.23 192.09 80.58 191.97 67.54 182.72 C 59.59 176.60 53.81 167.68 52.57 157.62 C 52.56 157.17 52.54 156.27 52.53 155.82 C 52.58 153.93 52.46 152.05 52.27 150.17 C 53.08 147.68 53.50 145.07 53.53 142.45 L 53.56 143.38 C 53.62 145.23 53.63 147.11 53.99 148.94 C 54.48 150.74 56.49 150.54 57.94 150.68 C 60.18 150.73 62.53 150.84 64.62 149.90 C 65.02 148.25 65.21 146.55 65.45 144.87 C 66.71 144.74 67.97 144.62 69.23 144.49 C 69.62 146.41 69.32 148.69 70.76 150.22 C 73.87 150.75 77.70 151.37 80.50 149.72 C 81.48 146.24 80.79 142.58 80.99 139.02 C 81.49 130.75 80.97 122.46 80.64 114.20 C 76.94 111.56 71.82 112.89 67.64 113.66 C 71.91 107.11 76.05 100.48 80.37 93.96 C 81.12 92.79 81.86 91.60 82.51 90.37 C 84.85 85.98 87.27 81.59 89.01 76.91 C 90.59 72.79 91.53 68.43 93.47 64.45 C 94.24 63.03 94.96 61.59 95.67 60.15 M 98.66 61.02 C 94.93 66.50 91.63 72.93 91.99 79.73 C 94.79 77.99 96.83 75.35 99.39 73.32 C 105.86 67.99 112.87 63.35 120.04 59.03 C 126.73 55.09 133.60 51.30 141.06 49.02 C 142.38 49.02 144.57 45.68 141.27 46.54 C 125.88 42.52 108.03 47.87 98.66 61.02 M 135.31 52.38 C 120.59 59.66 106.39 68.35 94.08 79.28 C 92.14 80.57 94.26 82.71 94.77 84.25 C 106.84 87.88 120.64 86.59 131.08 79.23 C 141.09 72.40 147.40 60.57 147.34 48.43 C 143.33 49.75 139.05 50.25 135.31 52.38 M 83.20 124.05 C 80.09 131.90 82.16 141.76 89.00 146.99 C 93.22 150.73 98.98 151.48 104.39 151.66 C 103.32 153.29 104.28 155.02 105.22 156.41 C 107.75 156.25 105.64 153.56 106.42 152.28 C 107.38 150.78 109.66 152.62 108.70 153.86 C 107.78 156.12 106.55 158.24 105.42 160.39 C 107.39 160.37 109.36 160.33 111.33 160.26 C 111.11 158.86 110.29 158.11 108.87 158.01 C 110.72 155.46 111.99 151.90 108.91 149.70 C 111.49 149.38 115.41 146.97 113.10 144.06 C 111.54 142.04 110.45 138.96 107.86 138.20 C 104.44 139.41 100.58 141.33 97.21 138.88 C 91.18 135.63 92.18 125.73 98.72 123.71 C 102.15 122.01 105.38 125.14 108.73 124.63 C 110.79 122.42 112.43 119.81 113.59 117.03 C 112.71 114.31 109.58 113.53 107.18 112.67 C 97.82 109.52 86.83 114.97 83.20 124.05 M 115.11 150.15 C 111.35 152.49 111.94 160.43 116.92 160.60 C 122.97 159.98 121.51 147.74 115.11 150.15 M 62.20 152.10 C 60.59 153.70 61.37 156.15 61.47 158.13 C 63.02 170.36 74.61 180.36 86.97 179.77 C 89.98 179.72 90.69 175.16 88.01 173.97 C 86.20 173.62 84.36 173.52 82.54 173.20 C 74.80 171.66 68.35 164.78 67.63 156.87 C 67.43 155.59 67.39 154.28 67.06 153.03 C 66.18 151.21 63.70 150.83 62.20 152.10 Z" />
<path fill="#3ac457" opacity="1.00" d=" M 64.89 133.05 C 65.55 130.18 66.68 127.03 69.62 125.78 C 69.65 128.36 69.58 130.93 69.44 133.50 C 67.92 133.35 66.40 133.20 64.89 133.05 Z" />
<path fill="#3ac457" opacity="1.00" d=" M 126.14 139.03 C 122.67 139.00 121.73 135.04 123.74 132.65 C 124.59 134.76 125.39 136.88 126.14 139.03 Z" />
<path fill="#3ac457" opacity="1.00" d=" M 114.82 156.00 C 114.33 154.08 115.51 152.44 116.88 151.28 C 118.78 153.08 119.55 156.58 117.38 158.43 C 115.95 159.35 114.88 157.16 114.82 156.00 Z" />
</g>
<g id="#bababaff">
<path fill="#bababa" opacity="1.00" d=" M 82.46 45.45 C 87.74 45.19 93.05 45.12 98.33 45.60 C 98.62 48.08 99.04 50.56 99.00 53.07 C 98.23 55.57 96.64 57.73 95.67 60.15 C 94.96 61.59 94.24 63.03 93.47 64.45 C 93.17 64.53 92.56 64.69 92.26 64.77 C 89.60 70.50 87.86 76.58 85.63 82.48 C 72.22 83.93 59.33 90.19 50.48 100.46 C 47.15 104.15 44.66 108.47 42.16 112.73 C 43.57 112.66 44.98 112.60 46.39 112.53 C 53.54 98.61 67.55 88.83 82.92 86.28 C 82.79 87.64 82.68 89.01 82.51 90.37 C 81.86 91.60 81.12 92.79 80.37 93.96 C 69.23 96.67 58.79 103.96 53.53 114.27 C 52.92 123.63 53.31 133.07 53.53 142.45 C 53.50 145.07 53.08 147.68 52.27 150.17 C 50.39 151.68 50.49 154.50 52.53 155.82 C 52.54 156.27 52.56 157.17 52.57 157.62 C 52.27 161.66 53.80 165.45 54.87 169.26 C 48.39 164.06 45.43 156.00 42.04 148.70 C 40.81 142.89 40.99 136.89 40.80 130.98 C 40.96 128.96 39.42 127.49 38.41 125.92 C 38.25 129.96 38.29 134.00 38.26 138.04 C 37.35 151.43 44.21 164.28 53.56 173.46 C 57.71 177.18 62.10 181.04 67.54 182.72 C 80.58 191.97 99.23 192.09 112.42 183.08 C 125.30 178.06 134.84 166.56 139.96 153.97 C 138.70 153.91 137.43 153.86 136.17 153.81 C 133.81 159.35 130.73 164.62 126.47 168.92 C 127.03 166.53 127.51 164.10 127.37 161.64 L 127.37 161.61 C 130.61 158.32 132.01 153.84 134.10 149.83 C 131.21 149.98 128.32 150.16 125.43 150.28 L 124.71 150.29 C 124.26 150.29 123.37 150.31 122.92 150.31 C 115.75 148.68 110.43 141.43 111.28 134.09 C 111.49 130.08 113.88 126.69 116.56 123.89 C 116.56 122.20 116.57 120.50 116.45 118.82 C 118.81 115.56 121.96 112.95 126.03 112.26 C 121.41 105.17 114.73 99.32 106.83 96.20 C 105.01 95.40 103.03 94.84 101.45 93.61 C 99.88 91.91 99.09 89.67 98.07 87.63 C 99.11 87.67 101.18 87.76 102.22 87.80 C 102.85 87.90 104.10 88.09 104.72 88.19 C 118.47 92.00 129.72 102.52 135.63 115.35 C 136.35 114.30 137.57 113.45 137.80 112.15 C 133.50 102.37 125.35 94.99 116.67 89.07 C 124.18 87.93 131.27 84.88 137.12 80.03 C 141.07 83.12 144.32 86.95 147.69 90.64 C 153.14 88.28 158.56 85.83 164.08 83.63 C 167.11 87.92 169.69 92.49 172.05 97.18 C 167.58 101.08 162.33 104.02 158.02 108.10 C 159.31 113.89 161.48 119.48 162.32 125.39 C 168.23 125.93 174.12 126.61 180.00 127.37 L 180.00 143.73 C 174.05 143.65 168.20 144.90 162.30 145.39 C 161.28 151.31 159.55 157.06 157.82 162.81 C 162.60 166.25 167.31 169.81 172.03 173.33 C 169.81 178.15 167.10 182.73 164.09 187.10 C 158.49 184.87 153.06 182.25 147.43 180.11 C 143.95 184.90 139.17 188.47 135.27 192.85 C 137.14 198.39 139.87 203.60 142.08 209.01 C 137.78 212.18 133.13 214.82 128.29 217.07 C 124.76 212.35 121.17 207.69 117.78 202.87 C 112.01 204.53 106.29 206.45 100.33 207.35 C 99.44 213.21 99.45 219.22 98.06 224.99 C 92.84 225.83 87.51 225.49 82.27 225.04 C 81.44 219.29 81.24 213.44 80.18 207.73 C 74.59 205.73 68.55 204.97 62.96 202.84 C 59.29 207.55 55.92 212.49 52.13 217.12 C 47.44 214.74 42.83 212.17 38.55 209.10 C 40.83 203.62 43.16 198.17 45.58 192.75 C 41.08 188.82 36.84 184.61 32.94 180.07 C 27.40 182.40 21.97 185.01 16.31 187.03 C 13.77 182.53 10.17 178.37 9.06 173.23 C 13.34 169.33 18.30 166.23 22.87 162.67 C 20.94 157.08 19.29 151.38 18.38 145.53 C 12.43 144.59 6.41 144.14 0.46 143.24 C 0.34 138.16 -0.14 133.04 0.58 127.99 C 6.09 125.84 12.44 126.35 18.28 125.33 C 19.28 119.46 20.84 113.71 22.88 108.12 C 18.16 104.38 13.10 101.06 8.55 97.10 C 11.26 92.73 12.96 87.15 16.99 83.96 C 22.50 85.73 27.61 88.58 33.04 90.61 C 36.82 86.05 41.06 81.90 45.55 78.04 C 43.23 72.62 40.99 67.16 38.49 61.81 C 42.66 58.74 47.02 55.72 51.94 53.99 C 56.53 57.71 58.82 63.63 63.11 67.72 C 68.82 66.19 74.44 64.24 80.31 63.29 C 80.92 57.33 81.55 51.37 82.46 45.45 M 135.51 123.93 C 134.96 129.08 138.64 133.22 139.82 137.98 C 140.50 141.32 137.83 143.90 135.75 146.11 C 136.58 147.84 137.41 149.57 138.24 151.30 C 143.05 148.81 146.67 143.64 146.11 138.07 C 146.07 132.98 141.74 129.06 141.91 123.98 C 141.88 121.21 144.14 119.38 145.97 117.66 C 145.12 115.76 144.26 113.87 143.40 111.98 C 139.13 114.50 135.71 118.83 135.51 123.93 M 29.20 115.14 C 29.25 126.09 29.35 137.04 29.15 147.98 C 31.35 147.97 33.55 147.95 35.74 147.90 C 35.56 139.15 35.57 130.39 35.72 121.64 C 39.69 123.30 43.52 126.50 44.03 131.03 C 44.45 136.68 44.13 142.35 44.10 148.00 C 46.29 147.98 48.49 147.95 50.69 147.91 C 50.57 137.01 50.57 126.12 50.69 115.23 C 48.53 115.21 46.37 115.19 44.21 115.19 C 44.20 116.50 44.19 117.81 44.18 119.12 C 39.88 115.87 34.46 115.03 29.20 115.14 M 120.77 117.81 C 118.88 119.72 119.08 122.49 119.22 124.96 C 116.74 127.46 113.98 130.26 113.89 134.03 C 113.13 139.08 115.92 144.25 120.40 146.62 C 123.24 148.40 126.71 147.95 129.90 148.02 C 129.89 145.99 129.89 143.96 129.90 141.93 C 127.20 141.75 123.98 142.21 121.95 139.99 C 119.50 137.85 119.30 133.89 121.60 131.57 C 123.51 128.99 127.02 129.61 129.81 129.57 C 129.84 127.43 129.87 125.29 129.90 123.15 C 128.35 123.09 126.82 123.03 125.28 122.95 C 125.91 120.95 128.32 121.94 129.84 121.56 C 129.86 119.40 129.87 117.25 129.88 115.10 C 126.70 115.15 122.95 115.02 120.77 117.81 M 123.74 132.65 C 121.73 135.04 122.67 139.00 126.14 139.03 C 128.46 138.87 130.85 139.04 132.70 140.61 C 132.76 137.47 132.80 134.33 132.81 131.19 C 129.87 132.12 126.79 132.36 123.74 132.65 M 26.73 163.00 C 27.04 163.51 27.66 164.54 27.97 165.05 C 29.74 164.75 31.50 164.46 33.27 164.19 C 32.34 165.90 31.34 167.56 30.29 169.20 C 32.92 172.28 37.03 168.96 40.26 168.76 C 39.63 165.61 35.68 168.05 33.55 168.03 C 34.33 166.06 36.73 164.20 36.02 161.99 C 34.06 161.96 32.12 162.21 30.19 162.42 C 31.44 160.31 33.22 158.26 32.98 155.63 C 30.05 157.25 28.71 160.47 26.73 163.00 M 146.96 156.72 C 145.84 158.50 148.37 159.13 149.18 160.23 C 148.45 161.51 147.71 162.79 146.97 164.07 C 145.77 163.64 143.28 161.44 143.22 164.03 C 144.75 166.24 147.69 167.30 149.82 168.99 C 150.12 168.46 150.71 167.40 151.01 166.87 C 150.02 166.23 149.02 165.59 148.03 164.96 C 148.77 163.60 149.50 162.23 150.23 160.87 C 151.46 161.29 152.69 161.71 153.92 162.13 C 154.15 161.63 154.61 160.64 154.84 160.14 C 152.26 158.93 149.84 157.14 146.96 156.72 M 136.92 172.98 C 137.97 172.25 138.99 171.47 140.07 170.78 C 142.01 172.00 143.39 174.10 145.61 174.85 C 147.42 172.05 142.94 170.79 141.48 168.98 C 142.05 167.82 142.60 166.65 143.14 165.47 C 140.23 167.01 138.00 169.89 136.92 172.98 M 33.34 173.06 C 35.17 174.69 37.54 175.47 39.66 176.62 C 39.51 175.96 39.21 174.65 39.06 173.99 C 39.85 173.97 41.44 173.93 42.23 173.90 C 41.89 175.30 41.64 176.91 39.84 176.98 C 40.60 178.83 40.80 181.12 42.54 182.38 C 43.11 178.85 43.61 175.31 44.17 171.78 C 40.53 171.97 36.92 172.41 33.34 173.06 M 132.87 174.56 C 132.43 177.84 135.90 179.74 137.48 182.21 C 139.84 180.47 142.57 178.67 143.36 175.64 C 141.52 176.77 139.84 178.14 138.21 179.54 C 136.67 177.64 135.06 175.73 132.87 174.56 M 46.97 178.09 C 46.79 180.83 48.54 183.07 49.50 185.50 C 47.39 184.58 45.75 182.95 43.86 181.70 C 44.32 185.22 47.85 187.40 51.23 187.14 C 52.15 184.21 49.53 182.01 48.57 179.49 C 50.44 180.30 52.17 181.42 54.11 182.05 C 52.75 179.34 50.16 177.29 46.97 178.09 M 127.08 180.04 C 124.90 182.89 126.52 187.18 126.11 190.58 C 127.46 189.94 127.95 188.56 128.51 187.29 C 129.81 186.28 131.15 185.31 132.49 184.34 C 133.30 184.50 134.11 184.67 134.93 184.84 C 135.25 184.43 135.90 183.61 136.23 183.20 C 133.13 182.28 130.16 180.98 127.08 180.04 M 54.57 181.87 C 55.26 182.86 56.06 183.76 56.96 184.58 C 55.75 186.72 54.60 188.91 53.78 191.25 C 56.94 191.33 57.45 187.72 58.85 185.63 C 59.97 186.02 61.09 186.40 62.22 186.77 C 61.03 183.72 57.27 183.06 54.57 181.87 M 115.11 186.94 C 115.78 189.51 117.00 191.87 118.07 194.29 C 120.66 193.12 123.97 192.60 125.39 189.84 C 123.23 190.50 121.21 191.65 118.96 192.01 C 118.15 189.05 122.59 189.24 123.40 186.83 C 121.22 187.05 118.80 189.77 116.85 187.80 C 118.73 186.69 120.60 185.57 122.24 184.12 C 119.69 184.48 117.10 185.24 115.11 186.94 M 63.41 186.10 C 62.28 188.60 61.17 191.10 60.08 193.62 C 62.72 194.74 65.40 195.92 68.32 196.03 C 66.83 194.44 64.68 193.91 62.80 192.96 C 63.22 189.69 67.12 192.85 69.12 192.87 C 68.17 190.53 65.06 190.63 63.47 188.85 C 65.72 187.94 67.87 189.28 70.00 189.86 C 69.27 187.09 65.59 187.24 63.41 186.10 M 111.90 187.91 C 111.79 189.55 111.71 191.20 111.49 192.84 C 109.54 192.71 109.00 190.22 107.67 189.08 C 105.14 189.59 106.43 193.27 105.73 195.16 C 104.04 193.85 103.05 189.51 100.47 190.87 C 101.89 193.57 103.34 196.49 105.83 198.36 C 108.14 197.68 107.34 194.52 107.96 192.72 C 109.27 194.20 110.59 195.69 111.92 197.17 C 114.57 194.54 113.32 190.46 113.82 187.13 C 113.34 187.33 112.38 187.72 111.90 187.91 M 83.79 193.51 C 85.41 193.29 87.03 193.05 88.66 192.84 C 88.36 196.16 84.83 197.46 82.79 199.62 C 85.63 199.79 88.48 199.92 91.34 199.94 C 91.13 197.90 89.17 198.21 87.65 198.06 C 88.95 196.42 92.16 194.32 89.84 192.17 C 87.95 191.03 84.21 190.60 83.79 193.51 Z" />
<path fill="#bababa" opacity="1.00" d=" M 83.20 124.05 C 86.83 114.97 97.82 109.52 107.18 112.67 C 109.58 113.53 112.71 114.31 113.59 117.03 C 112.43 119.81 110.79 122.42 108.73 124.63 C 105.38 125.14 102.15 122.01 98.72 123.71 C 92.18 125.73 91.18 135.63 97.21 138.88 C 100.58 141.33 104.44 139.41 107.86 138.20 C 110.45 138.96 111.54 142.04 113.10 144.06 C 115.41 146.97 111.49 149.38 108.91 149.70 C 108.12 149.81 106.55 150.01 105.77 150.11 C 105.30 150.62 104.84 151.13 104.39 151.66 C 98.98 151.48 93.22 150.73 89.00 146.99 C 82.16 141.76 80.09 131.90 83.20 124.05 M 84.39 128.83 C 82.89 136.88 88.15 145.41 95.88 147.95 C 100.96 149.88 106.75 148.81 111.27 145.96 C 110.16 144.27 109.01 142.62 107.83 140.98 C 103.70 142.94 98.46 143.47 94.76 140.31 C 89.17 136.19 89.22 126.81 95.01 122.89 C 98.59 119.82 103.62 120.61 107.71 122.07 C 108.80 120.39 109.89 118.72 111.00 117.05 C 107.89 115.51 104.53 114.12 100.98 114.35 C 92.94 114.50 85.73 120.96 84.39 128.83 Z" />
<path fill="#bababa" opacity="1.00" d=" M 67.64 113.66 C 71.82 112.89 76.94 111.56 80.64 114.20 C 80.97 122.46 81.49 130.75 80.99 139.02 C 80.79 142.58 81.48 146.24 80.50 149.72 C 77.70 151.37 73.87 150.75 70.76 150.22 C 69.32 148.69 69.62 146.41 69.23 144.49 C 67.97 144.62 66.71 144.74 65.45 144.87 C 65.21 146.55 65.02 148.25 64.62 149.90 C 62.53 150.84 60.18 150.73 57.94 150.68 C 56.49 150.54 54.48 150.74 53.99 148.94 C 53.63 147.11 53.62 145.23 53.56 143.38 C 53.76 138.60 53.36 133.78 54.13 129.05 C 55.41 121.94 60.93 116.08 67.64 113.66 M 57.35 127.30 C 55.36 134.00 56.68 141.09 56.24 147.97 C 58.40 147.97 60.57 147.95 62.74 147.93 C 62.72 145.94 62.71 143.96 62.71 141.98 C 65.86 141.97 69.01 141.99 72.16 142.01 C 72.12 144.01 72.08 146.02 72.04 148.02 C 74.22 147.99 76.41 147.93 78.59 147.85 C 78.33 137.06 78.45 126.26 78.54 115.47 C 69.78 113.77 60.28 118.77 57.35 127.30 Z" />
<path fill="#bababa" opacity="1.00" d=" M 62.64 136.01 C 61.64 129.61 65.64 123.05 72.08 121.66 C 72.14 126.43 72.12 131.20 72.10 135.97 C 68.94 135.96 65.79 135.97 62.64 136.01 M 64.89 133.05 C 66.40 133.20 67.92 133.35 69.44 133.50 C 69.58 130.93 69.65 128.36 69.62 125.78 C 66.68 127.03 65.55 130.18 64.89 133.05 Z" />
<path fill="#bababa" opacity="1.00" d=" M 128.18 185.40 C 126.59 183.76 130.01 181.31 130.65 183.68 C 130.59 184.75 129.25 186.11 128.18 185.40 Z" />
</g>
</svg>
